<svg width="82" height="52" fill="none" xmlns="http://www.w3.org/2000/svg"><path d="M80.7 24c-.9-1-2-1.7-3.4-2l-.6-8.4c.6 0 1.1-.5 1.2-1.1l.3-1.4a5 5 0 00-1-4c-.9-1-2.2-1.6-3.7-1.6h-9.4l.5-2.6c.1-.8 0-1.5-.5-2-.5-.6-1.2-.9-2-.9H15.9A3 3 0 0013 2.4L8.8 25.8a1.3 1.3 0 102.5.4L15.4 3c0-.2.3-.3.4-.3H62l-4 23.2a1.3 1.3 0 102.5.4l.3-1.7H76c1 0 2 .4 2.6 1.2.4.5.7 1 .7 1.8h-4.2c-.7 0-1.2.4-1.3 1l-.5 2.8c-.2 1 0 2.2.8 3 .6.8 1.6 1.2 2.7 1.2H78l-1 5.7h-3.4a6.8 6.8 0 00-6.8-5.5 10 10 0 00-8.6 5.5h-.5l1.7-9.5a1.3 1.3 0 10-2.5-.4l-1.8 9.9H31.5a6.8 6.8 0 00-7-5.5 9.6 9.6 0 00-8.4 5.5H8.7l.5-3H15a1.3 1.3 0 000-2.5H1.3a1.3 1.3 0 000 2.6h5.3L6.1 41c0 .7.1 1.5.6 2 .4.6 1.1.9 1.8.9h6.7c-.3 2.1.2 4.2 1.5 5.8a7 7 0 005.5 2.4 10 10 0 009.3-8v-.2h26c-.3 2.1.2 4.2 1.5 5.8a7 7 0 005.4 2.4 10 10 0 009.4-8v-.2h4.4c.6 0 1.2-.5 1.3-1.1L81.9 29a6 6 0 00-1.2-5zm-19.5-2l1.5-8.4H74l.6 8.4H61.2zm14.5-11.3l-.1.3H63.1l.6-3h9.8c.7 0 1.3.3 1.7.8.4.5.6 1.1.5 1.9zm-46.8 33a7.2 7.2 0 01-6.7 5.7c-1.5 0-2.7-.5-3.5-1.5-.9-1-1.2-2.4-1-3.8a7.2 7.2 0 016.9-5.8c1.4 0 2.6.5 3.4 1.5.9 1 1.2 2.4 1 3.8zm42.3 0a7.2 7.2 0 01-6.8 5.7c-1.4 0-2.6-.5-3.4-1.5-.9-1-1.2-2.4-1-3.8a7.2 7.2 0 016.9-5.8c1.4 0 2.6.5 3.4 1.5.9 1 1.2 2.4 1 3.8zM78.6 33h-1.7a1 1 0 01-.8-.4 1 1 0 01-.2-.9l.3-1.7h2.9l-.5 3z" fill="#AE7C78"/><path d="M25.5 42c-.5-.5-1.2-.8-1.9-.8a3 3 0 00-2.9 2.4c-.1.8 0 1.5.5 2 .5.6 1.2 1 2 1A3 3 0 0026 44c.1-.8 0-1.5-.5-2zm42.3 0c-.5-.5-1.2-.8-2-.8a3 3 0 00-2.8 2.4c-.1.8 0 1.5.5 2 .5.6 1.2 1 2 1a3 3 0 002.8-2.5c.1-.8 0-1.5-.5-2zm-16-6.3H35.5a1.3 1.3 0 000 2.6h16.3a1.3 1.3 0 000-2.6zm-23.1-5.5H5a1.3 1.3 0 000 2.6h23.7a1.3 1.3 0 000-2.6zM53.2 25l-4.8-4c-.5-.6-1.3-.5-1.8 0-.4.6-.4 1.4.2 1.9l2.1 1.8H16.3a1.3 1.3 0 000 2.6h31.8L45.4 29a1.3 1.3 0 001.5 2.2L53 27a1.3 1.3 0 000-2z" fill="#AE7C78"/></svg>