<svg width="67" height="52" fill="none" xmlns="http://www.w3.org/2000/svg"><path d="M54.7 39.5h4.2c.5 0 1-.4 1-1V5.1c0-.5-.5-1-1-1H7.2a1 1 0 00-1 1v33.4c0 .6.5 1 1 1h43a1 1 0 100-2h-42V6.1h49.7v31.4h-3.2a1 1 0 100 2z" fill="#AE7C78"/><path d="M65.1 41.7H64V3.6c0-2-1.6-3.6-3.6-3.6H15.5a1 1 0 000 2h45c.8 0 1.6.7 1.6 1.6v38.1H4V3.6c0-1 .7-1.7 1.6-1.7H11A1 1 0 1011 0H5.7C3.7 0 2 1.6 2 3.6v38.1H1a1 1 0 00-1 1v5.2C0 50.2 1.8 52 4.1 52h4.7a1 1 0 100-2H4.1c-1.2 0-2.2-1-2.2-2.1v-4.2h24l.4 1.6a3.6 3.6 0 003.4 2.5h6.6c1.6 0 3-1 3.5-2.5l.5-1.6H64v4.2c0 1.2-1 2.2-2.1 2.2H13.4a1 1 0 100 1.9H62c2.2 0 4-1.8 4-4.1v-5.2c0-.5-.4-1-.9-1zm-27.2 3c-.2.7-.8 1.2-1.6 1.2h-6.6c-.7 0-1.3-.5-1.5-1.2l-.4-1h10.4l-.3 1z" fill="#AE7C78"/><path d="M24.3 23.3a1 1 0 001-.8l1.1-5.8a1 1 0 00-1-1.2H18a1 1 0 100 2h6.3l-.8 3.9H16l-1.3-7a1 1 0 00-1-.8h-2.3a1 1 0 100 1.9h1.5l1.3 7v4c0 .6.4 1 1 1a1.3 1.3 0 001.3 1.6 1.3 1.3 0 001.3-1.3v-.3h2.1a1.3 1.3 0 102.6.6 1.3 1.3 0 000-.6h.2a1 1 0 100-2h-6.6v-2.2h8.2zM37.4 11.4c0-.5-.4-1-1-1h-4.1a1 1 0 00-1 1v4.2c0 .5.4 1 1 1h4.1c.6 0 1-.5 1-1v-4.2zm-2 3.2h-2.2v-2.2h2.3v2.2zM40.6 16.5h8.9a1 1 0 100-1.9h-8.9a1 1 0 100 2zM40.6 12.4h14a1 1 0 000-2h-14a1 1 0 100 2zM37.4 19.7c0-.5-.4-1-1-1h-4.1a1 1 0 00-1 1V24c0 .5.4 1 1 1h4.1c.6 0 1-.5 1-1v-4.2zm-2 3.2h-2.2v-2.2h2.3V23zM40.6 24.9h8.9a1 1 0 100-2h-8.9a1 1 0 100 2zM40.6 20.7h14a1 1 0 100-2h-14a1 1 0 100 2zM36.4 27.1h-4.1a1 1 0 00-1 1v4.2c0 .5.4 1 1 1h4.1c.6 0 1-.5 1-1V28c0-.5-.4-1-1-1zm-1 4.2h-2.2V29h2.3v2.2zM40.6 31.3a1 1 0 100 2h8.9a1 1 0 100-2h-8.9zM55.7 28c0-.4-.5-.9-1-.9H40.6a1 1 0 100 2h14c.6 0 1-.5 1-1z" fill="#AE7C78"/></svg>